<?xml version="1.0" standalone="no"?>
<!DOCTYPE svg PUBLIC "-//W3C//DTD SVG 20010904//EN"
 "http://www.w3.org/TR/2001/REC-SVG-20010904/DTD/svg10.dtd">
<svg version="1.0" xmlns="http://www.w3.org/2000/svg"
 width="260.000000pt" height="260.000000pt" viewBox="0 0 260.000000 260.000000"
 preserveAspectRatio="xMidYMid meet">
<metadata>
Created by potrace 1.11, written by Peter Selinger 2001-2013
</metadata>
<g transform="translate(0.000000,260.000000) scale(0.100000,-0.100000)"
fill="#000000" stroke="none">
<path d="M0 1300 l0 -1300 1300 0 1300 0 0 1300 0 1300 -1300 0 -1300 0 0
-1300z m1538 861 c321 -93 554 -334 638 -661 28 -108 25 -315 -4 -425 -88
-320 -327 -559 -647 -647 -110 -29 -317 -32 -425 -4 -275 70 -499 254 -611
501 -59 131 -74 205 -73 375 0 139 3 164 27 243 50 162 124 284 243 398 132
126 257 191 445 234 93 21 310 13 407 -14z"/>
</g>
</svg>
